
<svg xmlns="http://www.w3.org/2000/svg" xmlns:xlink="http://www.w3.org/1999/xlink" version="1.1" x="0px" y="0px" viewBox="0 0 512 640" style="enable-background:new 0 0 512 512;" xml:space="preserve"><g><g><g><g><path d="M431.18,460.078H80.821c-13.671,0-26.043-6.992-33.095-18.704c-7.052-11.713-7.443-25.919-1.047-38.001l175.18-330.895      c6.814-12.872,19.578-20.556,34.142-20.556c14.564,0,27.327,7.685,34.142,20.556l175.18,330.894      c6.396,12.083,6.005,26.289-1.047,38.002C457.223,453.086,444.851,460.078,431.18,460.078z M256,61.922      c-10.794,0-20.253,5.695-25.304,15.235L55.517,408.052c-4.741,8.955-4.451,19.483,0.776,28.164      c5.227,8.68,14.396,13.862,24.528,13.862H431.18c10.132,0,19.302-5.183,24.528-13.862c5.226-8.681,5.516-19.21,0.775-28.165      L281.304,77.157C276.253,67.617,266.794,61.922,256,61.922z"/></g><g><g><path d="M256,331.862c-14.661,0-26.936-11.457-27.944-26.084l-7.565-109.697c-0.532-7.717,2.189-15.386,7.468-21.041       c5.278-5.655,12.742-8.898,20.477-8.898h15.131c7.735,0,15.199,3.243,20.478,8.898c5.277,5.654,7.999,13.323,7.467,21.04       l-7.565,109.697C282.936,320.405,270.661,331.862,256,331.862z M248.435,176.143c-5.047,0-9.723,2.032-13.167,5.721       c-3.443,3.689-5.149,8.494-4.801,13.529l7.565,109.698c0.648,9.404,8.541,16.771,17.968,16.771s17.319-7.367,17.968-16.771       l7.565-109.698c0.348-5.035-1.357-9.839-4.801-13.528c-3.443-3.69-8.12-5.722-13.167-5.722H248.435z"/></g><g><path d="M256,412.407c-17.561,0-31.848-14.287-31.848-31.849c0-17.561,14.287-31.848,31.848-31.848       c17.562,0,31.849,14.287,31.849,31.848C287.849,398.12,273.562,412.407,256,412.407z M256,358.711       c-12.047,0-21.848,9.801-21.848,21.848c0,12.048,9.801,21.849,21.848,21.849c12.048,0,21.849-9.801,21.849-21.849       C277.849,368.512,268.048,358.711,256,358.711z"/></g></g></g></g></g></svg>