<svg xmlns="http://www.w3.org/2000/svg" xmlns:xlink="http://www.w3.org/1999/xlink" version="1.1" x="0px" y="0px" viewBox="0 0 64 80" enable-background="new 0 0 64 64" xml:space="preserve"><g><path fill="#000000" d="M36.406,24.743c-0.017,1.376-1.144,2.506-2.506,2.508c-1.339,0.003-2.523-1.17-2.531-2.511   c-0.009-1.393,1.201-2.588,2.586-2.56C35.316,22.209,36.42,23.365,36.406,24.743z"/><path fill="#000000" d="M20.594,19.7c-0.009,1.299-1.053,2.362-2.331,2.374c-1.301,0.011-2.423-1.135-2.391-2.44   c0.031-1.27,1.147-2.345,2.408-2.32C19.567,17.34,20.599,18.407,20.594,19.7z"/><path fill="#000000" d="M45.918,40.927c-0.006,1.21-0.984,2.205-2.177,2.217c-1.216,0.011-2.265-1.058-2.234-2.28   c0.031-1.187,1.073-2.191,2.248-2.165C44.957,38.722,45.923,39.717,45.918,40.927z"/><path fill="#000000" d="M20.167,39.538c0,1.263-1.008,2.297-2.251,2.314c-1.263,0.017-2.361-1.096-2.327-2.359   c0.032-1.245,1.089-2.273,2.324-2.26C19.161,37.248,20.164,38.275,20.167,39.538z"/><path fill="#000000" d="M56.25,26.076c0.06-0.39,0.12-0.77,0.18-1.17c0.7-5.47-0.3-9.93-3.07-13.63   c-4.93-6.59-11.88-10.08-21.25-10.65h-0.22c-9.37,0.57-16.32,4.06-21.25,10.65c-2.77,3.7-3.77,8.16-3.07,13.63   c0.06,0.4,0.12,0.78,0.18,1.17c-2.5,0.63-3.77,2.31-3.77,5c0.01,3.31,0.73,6.36,2.17,9.04c0.95,1.78,2.51,2.87,4.63,3.24   c0.07,0.28,0.14,0.57,0.23,0.85c1.33,4.32,4.04,8.95,7.22,12.4c1.66,1.79,3.4,3.24,5.2,4.32c-0.3-0.47-0.51-1.01-0.61-1.6   c-0.18-1.04,0-2.05,0.5-2.92c-4.28-3.5-7.53-9.06-8.84-13.28c-0.12-0.35-0.2-0.75-0.29-1.18c-0.05-0.22-0.09-0.44-0.15-0.67   l-0.31-1.37l-1.41-0.04c-1.95-0.05-2.58-0.73-2.97-1.46c-1.15-2.15-1.73-4.62-1.74-7.33c0-1.08,0.16-1.37,1.53-1.57   c0.28-0.04,0.55-0.09,0.79-0.14c0.08-0.02,0.17-0.04,0.26-0.05l1.73-0.33l-0.28-1.75c-0.06-0.36-0.12-0.69-0.18-1.03   c-0.11-0.61-0.21-1.2-0.28-1.77c-0.59-4.48,0.19-8.07,2.37-10.98c4.23-5.66,10.27-8.67,18.45-9.2c8.18,0.53,14.22,3.54,18.45,9.2   c2.18,2.91,2.96,6.5,2.37,10.98c-0.07,0.57-0.17,1.15-0.28,1.77c-0.06,0.33-0.12,0.67-0.18,1.03l-0.28,1.75l1.73,0.33   c0.09,0.01,0.18,0.03,0.26,0.05c0.24,0.05,0.51,0.1,0.78,0.14c1.38,0.2,1.54,0.49,1.54,1.56c-0.01,2.72-0.59,5.19-1.74,7.34   c-0.39,0.73-1.02,1.41-2.97,1.46l-1.41,0.04l-0.31,1.37c-0.06,0.23-0.1,0.45-0.15,0.68c-0.09,0.42-0.17,0.82-0.29,1.18   c-2.03,6.55-8.76,16.36-16.76,16.6h-0.7L32,59.726l-0.06,0.01H31.4c-0.44,1.61-1.74,2.87-3.36,3.18c1.03,0.27,2.06,0.42,3.09,0.45   c0.29,0.01,0.58,0.01,0.87,0h0.87c4.47-0.14,8.93-2.48,12.9-6.76c3.18-3.45,5.89-8.08,7.22-12.39c0.09-0.29,0.16-0.58,0.23-0.86   c2.12-0.37,3.68-1.46,4.63-3.24c1.44-2.68,2.17-5.73,2.17-9.04C60.02,28.386,58.75,26.716,56.25,26.076z"/><g><path fill="#000000" d="M35.611,41.447c-0.534-0.359-1.18-0.228-1.621,0.336c-1.016,1.302-2.452,1.321-3.47,0.054    c-0.214-0.271-0.565-0.593-1.023-0.593c-0.221,0-0.438,0.074-0.647,0.219c-0.581,0.398-0.682,1.104-0.25,1.754    c0.844,1.274,2.029,1.938,3.523,1.975h0.004h0.004c1.686-0.016,2.93-0.706,3.805-2.111C36.298,42.502,36.161,41.815,35.611,41.447    z"/><path fill="#000000" d="M16.438,30.636c1.912-0.617,4.022-0.788,6-0.489c0.583,0.09,1.184,0.278,1.765,0.46    c0.842,0.267,1.797,0.569,2.77,0.569c0.297,0,0.585-0.027,0.854-0.082c0.604-0.116,1.048-0.449,1.189-0.895    c0.085-0.285,0.089-0.727-0.377-1.206c-0.427-0.439-1.075-0.607-1.715-0.725c-0.55-0.1-1.103-0.21-1.655-0.321    c-1.579-0.322-3.369-0.688-5.13-0.688c-0.42,0-0.829,0.021-1.215,0.061c-0.889,0.091-1.613,0.368-2.502,0.959    c-0.595,0.395-1.205,0.88-1.229,1.482c-0.012,0.29,0.122,0.559,0.378,0.758C15.798,30.692,16.111,30.736,16.438,30.636z"/><path fill="#000000" d="M27.736,33.797c-0.74-0.169-1.582-0.252-2.572-0.252c-0.813,0-1.624,0.054-2.408,0.106l-0.085,0.006    c-0.305,0.023-0.606,0.043-0.902,0.06c-1.935,0.117-3.612-0.243-5.161-1.097l-0.111-0.046l-0.161-0.019    c-0.2,0-0.389,0.098-0.504,0.264c-0.18,0.262-0.136,0.611,0.1,0.813c0.146,0.128,0.285,0.264,0.425,0.403l0.046,0.045    c0.271,0.263,0.552,0.534,0.888,0.756c0.066,0.046,0.136,0.092,0.205,0.133c0.425,0.261,0.895,0.486,1.437,0.691    c0.922,0.344,1.896,0.551,2.981,0.632c0.366,0.026,0.737,0.047,1.106,0.047c0.785,0,1.427-0.092,2.02-0.29    c0.293-0.1,0.57-0.23,0.835-0.358c0.303-0.145,0.589-0.281,0.887-0.357c0.266-0.069,0.557-0.098,0.883-0.125    c0.354-0.029,0.628-0.308,0.654-0.662C28.318,34.184,28.088,33.876,27.736,33.797z"/><path fill="#000000" d="M48.476,28.278c-0.889-0.591-1.613-0.868-2.5-0.959c-0.388-0.04-0.797-0.061-1.217-0.061    c-1.76,0-3.473,0.35-5.128,0.688c-0.554,0.111-1.107,0.222-1.658,0.321c-0.605,0.11-1.281,0.283-1.711,0.725    c-0.496,0.511-0.448,0.977-0.376,1.209c0.138,0.441,0.581,0.774,1.185,0.892c0.274,0.055,0.562,0.082,0.855,0.082    c0.973,0,1.928-0.303,2.769-0.569c0.582-0.182,1.184-0.37,1.765-0.46c1.985-0.301,4.09-0.129,6.003,0.489    c0.323,0.101,0.638,0.06,0.871-0.119c0.251-0.198,0.384-0.467,0.372-0.756C49.681,29.149,49.034,28.646,48.476,28.278z"/><path fill="#000000" d="M48.541,32.558c-0.002,0-0.004,0-0.006,0l-0.12,0.014l-0.15,0.062c-1.521,0.84-3.208,1.198-5.133,1.084    c-0.295-0.017-0.601-0.036-0.907-0.06l-0.089-0.007c-0.781-0.052-1.589-0.105-2.402-0.105c-0.99,0-1.832,0.083-2.571,0.252    c-0.354,0.079-0.583,0.388-0.558,0.752c0.027,0.358,0.296,0.63,0.653,0.659c0.324,0.027,0.614,0.056,0.881,0.125    c0.296,0.076,0.579,0.211,0.904,0.366c0.259,0.123,0.526,0.251,0.817,0.35c0.592,0.198,1.233,0.29,2.019,0.29    c0.369,0,0.741-0.021,1.108-0.047c1.084-0.081,2.06-0.288,2.981-0.633c0.55-0.208,1.02-0.434,1.436-0.69    c0.07-0.043,0.142-0.087,0.201-0.13c0.351-0.231,0.64-0.514,0.938-0.805c0.138-0.139,0.275-0.274,0.425-0.403    c0.235-0.207,0.277-0.558,0.1-0.81C48.958,32.656,48.772,32.558,48.541,32.558z"/></g><path fill="#000000" d="M38.036,50.481c-0.341-0.548-0.718-1.075-1.099-1.597c-0.519-0.718-1.199-1.329-1.418-2.237   c-0.008-0.036-0.079-0.084-0.113-0.079c-0.039,0.008-0.092,0.063-0.102,0.103c-0.094,0.506-0.393,0.902-0.689,1.301   c-0.529,0.716-1.078,1.419-1.586,2.151c-0.438,0.632-0.58,1.343-0.446,2.113c0.267,1.513,1.579,2.528,3.145,2.418   c1.437-0.1,2.615-1.396,2.623-2.95C38.384,51.308,38.274,50.867,38.036,50.481z"/><path fill="#000000" d="M29.75,57.315c-0.341-0.548-0.718-1.075-1.099-1.597c-0.519-0.718-1.199-1.329-1.418-2.237   c-0.008-0.036-0.079-0.084-0.113-0.079c-0.039,0.008-0.092,0.063-0.102,0.103c-0.094,0.506-0.393,0.902-0.689,1.301   c-0.529,0.716-1.078,1.419-1.586,2.151c-0.438,0.632-0.58,1.343-0.446,2.113c0.267,1.513,1.579,2.528,3.145,2.418   c1.437-0.1,2.615-1.397,2.623-2.95C30.097,58.142,29.987,57.701,29.75,57.315z"/></g></svg>