
<svg xmlns="http://www.w3.org/2000/svg" xmlns:xlink="http://www.w3.org/1999/xlink" version="1.1" x="0px" y="0px" viewBox="0 0 42 52.5" enable-background="new 0 0 42 42" xml:space="preserve">
    <circle cx="17.376" cy="8.145" r="2.895" />
    <path d="M33.021,31.327h-1.63l-3.381-7.645c-0.301-0.68-0.975-1.118-1.717-1.118h-4.468l-0.608-3.433l6.35,1.66  c0.133,0.035,0.266,0.052,0.396,0.052c0.694,0,1.328-0.466,1.513-1.169c0.218-0.836-0.282-1.691-1.118-1.909l-7.742-2.024  l-0.302-1.695c-0.212-1.191-1.349-1.984-2.539-1.773s-1.985,1.348-1.774,2.539l1.721,9.7c0.189,1.062,1.113,1.809,2.154,1.809  c0.002,0,5.195-0.001,5.195-0.001l3.104,7.019c0.311,0.7,0.996,1.116,1.715,1.118c0.001,0,3.132,0,3.132,0  c0.864,0,1.564-0.7,1.564-1.564S33.886,31.327,33.021,31.327z" />
    <path d="M24.411,31.652c-1.359,1.648-3.363,2.595-5.497,2.595c-3.925,0-7.118-3.194-7.118-7.119  c-0.001-2.526,1.295-4.812,3.467-6.111c0.445-0.267,0.68-0.78,0.59-1.291l-0.791-4.471c-0.105-0.599-0.625-1.034-1.232-1.034H8.667  c-0.691,0-1.252,0.561-1.252,1.251c0,0.691,0.561,1.252,1.252,1.252h4.112l0.465,2.631c-2.458,1.8-3.952,4.703-3.952,7.773  c0,5.306,4.316,9.622,9.622,9.622c2.884,0,5.593-1.277,7.429-3.506c0.439-0.533,0.363-1.322-0.17-1.762S24.851,31.118,24.411,31.652  z" />
    </svg>