
<svg xmlns="http://www.w3.org/2000/svg" xmlns:xlink="http://www.w3.org/1999/xlink" version="1.1" x="0px" y="0px" viewBox="0 0 64 80" enable-background="new 0 0 64 64" xml:space="preserve"><path d="M23.564,49.932c-0.438-0.437-1.123-0.532-1.671-0.292c-0.043-1.219-0.349-2.483-1.288-3.232  c-1.26-1.006-4.875-6.456-6.001-8.393c-0.334-0.575-0.883-0.905-1.508-0.905c-0.816,0-1.576,0.567-2.032,1.516  c-0.246,0.513-0.732,1.888-0.189,3.931c-0.885-0.931-1.651-2.106-1.912-3.515l-0.02-0.107c-0.92-4.969-1.646-8.894-4.488-8.894  c-0.153,0-0.312,0.014-0.475,0.042c-0.428,0.074-1.037,0.314-1.511,1.036c-1.793,2.735,0.126,10.727,0.209,11.065l0.041,0.17  c0.651,2.681,1.214,4.997,4.453,8.563c2.296,2.527,5.425,5.029,7.037,6.263l-0.199,0.199c-0.575,0.577-0.569,1.519,0.012,2.1  l2.714,2.714c0.284,0.285,0.66,0.441,1.061,0.441c0.393,0,0.763-0.152,1.041-0.43l7.456-7.455c0.277-0.278,0.43-0.648,0.429-1.042  c-0.001-0.4-0.158-0.776-0.441-1.057L23.564,49.932z M8.838,49.403c-2.854-3.142-3.306-5.003-3.932-7.581l-0.042-0.171  c-1.104-4.532-1.152-8.832-0.499-9.353c0.031-0.005,0.061-0.009,0.09-0.009c0.971,0,1.756,4.244,2.275,7.053l0.021,0.107  c0.954,5.159,6.663,7.677,6.907,7.782c0.475,0.206,1.027,0.059,1.34-0.352c0.313-0.412,0.307-0.983-0.018-1.386  c-2.176-2.709-2.171-4.591-2.067-5.273c0.027-0.187,0.069-0.341,0.114-0.466c1.247,2.021,4.586,7.141,6.174,8.41  c0.545,0.434,0.547,2.283,0.219,3.805l-3.604,3.603C14.353,54.461,11.105,51.899,8.838,49.403z M17.793,60.068l-1.645-1.645  l6.363-6.362l1.645,1.645L17.793,60.068z"/><path d="M61.53,31.118c-0.474-0.722-1.083-0.961-1.511-1.036c-0.163-0.028-0.321-0.042-0.475-0.042  c-2.842,0-3.567,3.921-4.486,8.885l-0.021,0.116c-0.259,1.399-1.024,2.571-1.908,3.502c0.537-2.037,0.052-3.407-0.193-3.919  c-0.456-0.949-1.215-1.516-2.032-1.516c-0.624,0-1.174,0.33-1.507,0.905c-1.125,1.937-4.738,7.385-6,8.393  c-0.939,0.749-1.246,2.013-1.289,3.232c-0.547-0.24-1.232-0.145-1.674,0.295l-2.715,2.716c-0.582,0.581-0.587,1.523-0.011,2.101  l7.455,7.455c0.277,0.277,0.647,0.429,1.04,0.429c0.4,0,0.777-0.157,1.06-0.44l2.715-2.715c0.582-0.582,0.587-1.523,0.011-2.101  l-0.198-0.198c1.613-1.233,4.741-3.735,7.037-6.263c3.239-3.566,3.802-5.881,4.453-8.563l0.041-0.17  C61.404,41.845,63.323,33.854,61.53,31.118z M46.207,60.067l-6.362-6.362l1.645-1.645l6.362,6.362L46.207,60.067z M59.136,41.652  l-0.042,0.171c-0.626,2.577-1.078,4.439-3.932,7.581c-2.268,2.496-5.515,5.058-6.979,6.169L44.58,51.97  c-0.328-1.521-0.324-3.37,0.221-3.805c1.59-1.271,4.926-6.387,6.172-8.409c0.045,0.125,0.087,0.279,0.115,0.466  c0.103,0.683,0.107,2.564-2.068,5.273c-0.323,0.402-0.331,0.974-0.018,1.386c0.313,0.411,0.867,0.557,1.341,0.352  c0.243-0.105,5.953-2.623,6.906-7.782l0.022-0.116c0.52-2.805,1.304-7.045,2.273-7.045c0.031,0,0.059,0.003,0.047-0.009  C60.288,32.82,60.24,37.12,59.136,41.652z"/><path d="M52.945,18.685C51.023,8.65,42.225,1.366,32.022,1.366c-1.344,0-2.7,0.129-4.031,0.384  C16.443,3.96,8.847,15.154,11.057,26.703c1.921,10.035,10.719,17.319,20.922,17.319c1.344,0,2.7-0.129,4.031-0.384  C47.557,41.427,55.154,30.233,52.945,18.685z M50.188,28.431c-0.916,0.04-1.727-0.372-2.418-1.245  c-1.398-1.767-1.793-4.809-0.862-6.644c1.178-2.318,1.323-3.857-0.926-6.849c-0.132-0.177-0.278-0.42-0.22-0.577  c0.153-0.409,1.05-0.884,1.97-1.184c1.446,2.113,2.497,4.533,3.003,7.176C51.35,22.324,51.114,25.509,50.188,28.431z M22.535,6.138  c0.779,1.161,2.106,2.587,3.957,2.678c1.365,0.076,2.479-0.621,3.368-1.174c0.251-0.156,0.604-0.375,0.823-0.469  c0.006,0.01,0.012,0.021,0.018,0.034l0.262,0.523c0.782,1.545,0.863,1.708,0.518,3.29c-0.307,1.407-1.123,5.145,2.333,6.291  c0.173,0.058,0.284,0.117,0.349,0.16c-0.181,0.325-1.082,1.239-3.814,2.171c-3.666,1.25-6.562,2.237-7.075,4.332  c-0.268,1.087,0.161,2.203,1.311,3.41c0.301,0.315,0.343,0.485,0.352,0.485c-0.037,0.072-0.284,0.316-0.968,0.551  c-1.551,0.534-3.564,0.482-4.122,0.293c-0.109-0.394,0.063-1.558,0.179-2.344c0.267-1.799,0.598-4.039-0.186-5.918  c-0.6-1.438-1.66-2.487-2.595-3.413c-1.428-1.413-2.169-2.243-1.878-3.651C17.039,10.399,19.505,7.875,22.535,6.138z M13.267,26.28  c-0.637-3.326-0.359-6.617,0.647-9.619c0.496,0.735,1.137,1.373,1.746,1.976c0.861,0.852,1.675,1.658,2.101,2.679  c0.544,1.303,0.274,3.12,0.037,4.723c-0.293,1.979-0.569,3.848,0.917,4.63c0.519,0.273,1.443,0.422,2.497,0.422  c2.027,0,4.527-0.554,5.504-1.847c0.366-0.483,1.048-1.784-0.502-3.413c-0.538-0.565-0.821-1.06-0.757-1.323  c0.221-0.898,3.339-1.962,5.617-2.738c3.521-1.201,5.379-2.713,5.371-4.372c-0.001-0.478-0.193-1.65-1.924-2.224  c-0.808-0.268-1.48-0.75-0.842-3.675c0.492-2.256,0.222-2.946-0.708-4.785l-0.257-0.511c-0.331-0.667-0.793-1.089-1.373-1.253  c-0.971-0.276-1.834,0.262-2.669,0.781c-0.688,0.428-1.381,0.859-2.07,0.838c-0.775-0.038-1.494-0.733-2.021-1.447  c1.211-0.511,2.491-0.906,3.832-1.163c1.192-0.228,2.406-0.344,3.608-0.344c5.607,0,10.735,2.468,14.258,6.449  c-1.032,0.429-2.205,1.142-2.625,2.26c-0.23,0.614-0.325,1.584,0.527,2.72c1.786,2.376,1.475,2.992,0.719,4.479  c-1.329,2.619-0.845,6.598,1.104,9.06c0.909,1.149,2.068,1.842,3.328,2.041c-0.713,1.553-1.627,3.005-2.722,4.314  c-2.706-2.774-4.671-4.07-5.849-3.843c-0.424,0.081-0.882,0.257-1.365,0.444c-1.557,0.599-2.834,0.991-3.946,0.136  c-1.136-0.873-2.511-1.105-3.872-0.654c-1.649,0.547-3.082,2.068-3.565,3.785c-0.154,0.547-0.31,1.354,0.128,2.041  c0.46,0.722,1.258,0.852,1.898,0.956c0.539,0.088,1.096,0.178,1.575,0.552c0.683,0.534,1.135,1.501,1.151,2.463  c0.006,0.376-0.065,0.707-0.188,0.94c-0.2,0.006-0.4,0.014-0.601,0.014C22.854,41.771,14.984,35.256,13.267,26.28z M35.586,41.428  c-0.207,0.04-0.416,0.072-0.624,0.104c0.033-0.242,0.06-0.489,0.055-0.751c-0.026-1.64-0.799-3.25-2.017-4.201  c-0.933-0.729-1.934-0.892-2.598-1c-0.078-0.013-0.169-0.028-0.254-0.043c0.009-0.037,0.019-0.078,0.031-0.123  c0.281-0.997,1.168-1.947,2.109-2.259c0.647-0.215,1.251-0.113,1.792,0.303c2.2,1.691,4.657,0.746,6.126,0.18  c0.342-0.132,0.668-0.257,0.895-0.315c0.605,0.169,2.311,1.582,3.962,3.254C42.514,38.985,39.277,40.721,35.586,41.428z"/></svg>