<svg xmlns="http://www.w3.org/2000/svg" viewBox="0 0 512 640" x="0px" y="0px"><title>Maternity_Health_Insurance</title><g><path d="M112.88,228.86,128.37,236a5,5,0,0,0,4.21,0l15.48-7.17A112,112,0,0,0,190.89,194a5,5,0,1,0-8-5.95,101.92,101.92,0,0,1-39,31.76L130.47,226l-13.38-6.2a102,102,0,0,1-58.95-92.25V53.71H93.22a44.29,44.29,0,0,0,37.25-20.29,44.3,44.3,0,0,0,37.25,20.29H202.8v73.82a102.16,102.16,0,0,1-10.87,45.75,5,5,0,1,0,8.93,4.51,112.27,112.27,0,0,0,11.94-50.26V48.71a5,5,0,0,0-5-5H167.72A34.3,34.3,0,0,1,135.21,20.4a5,5,0,0,0-4.74-3.4h0a5,5,0,0,0-4.73,3.4A34.33,34.33,0,0,1,93.22,43.71H53.14a5,5,0,0,0-5,5v78.82A112,112,0,0,0,112.88,228.86Z"/><path d="M70.13,76.5a5,5,0,0,0-5,5v46A95,95,0,0,0,120,213.45l8.35,3.86a4.95,4.95,0,0,0,4.21,0l8.35-3.86a95,95,0,0,0,54.89-85.92V65.7a5,5,0,0,0-5-5h-23.1a51.31,51.31,0,0,1-33.94-12.82,5,5,0,0,0-6.62,0A51.29,51.29,0,0,1,93.22,60.7H70.13a5,5,0,0,0,0,10H93.22a61.29,61.29,0,0,0,37.25-12.61A61.25,61.25,0,0,0,167.72,70.7h18.1v56.83a84.94,84.94,0,0,1-49.1,76.84l-6.25,2.9-6.25-2.9a84.94,84.94,0,0,1-49.09-76.84v-46A5,5,0,0,0,70.13,76.5Z"/><path d="M129.21,83.46A45.76,45.76,0,1,0,175,129.22a47,47,0,0,0-.28-5,5,5,0,0,0-9.94,1.1,34.43,34.43,0,0,1,.22,3.94,35.76,35.76,0,1,1-10.72-25.53,5,5,0,0,0,7-7.14A45.51,45.51,0,0,0,129.21,83.46Z"/><path d="M108.5,125.9a5,5,0,0,0-7.07,7.08l21.11,21.11a5,5,0,0,0,7.07,0L180,103.66A5,5,0,0,0,173,96.59l-46.9,46.89Z"/><path d="M468.25,217.68a5,5,0,0,0,2.63-6.18L414.39,48.62a5,5,0,1,0-9.45,3.27L460,210.5,289.53,289.26a5,5,0,0,0-2.16,1.92l-11.72,19.09a20.73,20.73,0,0,1-12.94,9.39l-.23.06-38.3,11.11a4.2,4.2,0,0,1-3.67-7.41l20.9-15.4a1.55,1.55,0,0,0,.24-.19L272,282.5c.07-.05.12-.12.19-.18s.25-.25.36-.38a3.57,3.57,0,0,0,.3-.38c.09-.13.18-.26.26-.4s.16-.29.23-.44.12-.28.17-.43.1-.31.14-.47.06-.31.08-.47a3.87,3.87,0,0,0,.05-.49c0-.15,0-.31,0-.47a4.78,4.78,0,0,0-.06-.53c0-.09,0-.17,0-.25a1.89,1.89,0,0,1-.06-.18c-.05-.18-.11-.35-.17-.52s-.11-.3-.18-.44l-.23-.4c-.1-.16-.2-.31-.31-.46l-.1-.15-.17-.17a5,5,0,0,0-.41-.39l-.34-.28a4,4,0,0,0-.44-.27c-.13-.08-.27-.15-.41-.22a3.66,3.66,0,0,0-.46-.18l-.44-.13a4.21,4.21,0,0,0-.49-.09,3.88,3.88,0,0,0-.48,0h-.47a4.78,4.78,0,0,0-.53.06l-.26,0L252.93,277a2.26,2.26,0,0,1-1.79-.35,2.34,2.34,0,0,1-1-1.55,2.3,2.3,0,0,1,1.75-2.56l36-8.25a4.53,4.53,0,0,0,1.05-.37l131.68-63.51a5,5,0,0,0,2.51-6.26l-11.19-30a5,5,0,0,0-9.37,3.5l9.6,25.68-29.44,14.2a239.06,239.06,0,0,1,7.92-27.42c4-11.14,7.92-22.85,11.68-34.83l.65-2.1a5,5,0,0,0-1.55-5.31c-30.7-26-24.68-86.33-24.6-87.09a5,5,0,0,0-9.95-1.08c-.28,2.63-6.41,63.26,25.6,93.57-3.62,11.5-7.4,22.76-11.24,33.46a256.09,256.09,0,0,0-9.91,36.3l-86.23,41.59-35.45,8.12a12.29,12.29,0,0,0-4.26,22.07,12.16,12.16,0,0,0,5.63,2.1l-15.71,13.13-20.78,15.31A14.2,14.2,0,0,0,223,341a14.44,14.44,0,0,0,4-.56l38.2-11.08a30.71,30.71,0,0,0,19-13.86l10.92-17.8,71-32.83a256.83,256.83,0,0,0,18.92,99c1.68,4.13,3.42,8.33,5.19,12.58C402,404.83,415.39,437,421,474.73a5,5,0,0,0,4.94,4.27,6,6,0,0,0,.73-.05,5,5,0,0,0,4.22-5.68c-5.76-38.94-19.37-71.74-31.38-100.68-1.75-4.23-3.48-8.41-5.16-12.53a247.12,247.12,0,0,1-18.1-99.85Z"/><path d="M206.47,473.94a5,5,0,0,0,4.94,5.06h.06a5,5,0,0,0,5-4.94,354.3,354.3,0,0,1,4.82-54.43c21.07,13.79,46.06,21,73.23,21h15.71a5,5,0,0,0,0-10H294.52c-68.69,0-109.79-49.07-120-97.71-9.4-44.58,3.17-107,69.57-136.37,1.13-.5,2.26-1,3.42-1.46l.2-.09,25-11.67a5,5,0,0,0-2-9.53c-.24,0-24.42-1.06-30.33-27.68a20.09,20.09,0,0,1,7.89-20.48,220.54,220.54,0,0,1,19-12.18h42.44a47.49,47.49,0,0,0,47.45-43.06l1.91-19.67a5,5,0,1,0-9.95-1l-1.91,19.67a37.54,37.54,0,0,1-37.5,34H278c15.6-16.61,25.43-34.12,29.21-52.18a5,5,0,1,0-9.78-2.06c-4,19-15.62,37.61-34.56,55.21a232.6,232.6,0,0,0-20.54,13.14,30.07,30.07,0,0,0-11.75,30.71c3.94,17.78,14.91,27.32,25.15,31.91l-12.23,5.7c-1.19.49-2.36,1-3.53,1.51-30.42,13.43-53.4,35.44-66.45,63.63-11.77,25.45-14.93,55.26-8.87,84,6.1,28.91,21.2,55.15,42.51,73.9q2.53,2.24,5.18,4.3a3.22,3.22,0,0,0-.16.5C212,414.75,206.87,439.69,206.47,473.94Z"/><path d="M133.65,242.25a5,5,0,0,0-5,5v9.25a40.6,40.6,0,0,0,18.54,34.17,5,5,0,1,0,5.45-8.39,30.63,30.63,0,0,1-14-25.78v-9.25A5,5,0,0,0,133.65,242.25Z"/></g><text x="0" y="527" fill="#000000" font-size="5px" font-weight="bold" font-family="'Helvetica Neue', Helvetica, Arial-Unicode, Arial, Sans-serif">Created by Chanut is Industries</text><text x="0" y="532" fill="#000000" font-size="5px" font-weight="bold" font-family="'Helvetica Neue', Helvetica, Arial-Unicode, Arial, Sans-serif">from the Noun Project</text></svg>
