
<svg xmlns="http://www.w3.org/2000/svg" xmlns:xlink="http://www.w3.org/1999/xlink" version="1.1" x="0px" y="0px" viewBox="0 0 64 80" style="enable-background:new 0 0 64 64;" xml:space="preserve"><path d="M37.086,61.594l1.827,0.813l2.85-6.411c0.84-1.891,0.881-4.076,0.113-5.997c-0.702-1.756-2.021-3.188-3.688-4.022  l-2.477-1.32c0.375-0.469,0.66-1.014,0.81-1.618c0.357-1.428-0.058-2.96-1.083-4.013l-6.282-7.786  c-0.549-1.1-1.091-2.219-1.358-3.258C27.865,27.983,27.934,28,28,28c2.521,0,4.5-0.707,5.879-2.101c2.523-2.55,2.48-6.798,2.449-9.9  l-0.007-0.963c0-0.056-0.003-0.114-0.005-0.17c0.434-0.495,0.678-1.108,0.683-1.807C37.045,7.615,32.862,2.8,27.478,2.097  c-3.172-0.417-6.353,0.547-8.731,2.634C16.365,6.82,15,9.835,15,13c0,1.745,0.421,3.482,1.218,5.024  c0.315,0.61,0.373,1.29,0.163,1.913c-0.196,0.58-0.611,1.046-1.17,1.312C10.139,23.652,7,28.701,7,32c0,3.32,3.054,5.934,8,7.194V62  h2V45.847l4.081,9.547C21.238,55.761,21.6,56,22,56h13c1.654,0,3-1.346,3-3s-1.346-3-3-3h-7.217l-2.498-10.094  c2.69-0.26,4.311-0.951,5.072-2.138c0.263-0.41,0.394-0.848,0.447-1.302l3.109,3.854c0.022,0.027,0.046,0.055,0.071,0.079  c0.56,0.561,0.789,1.386,0.597,2.154c-0.229,0.915-1.013,1.601-1.95,1.704L29.547,44.6l0.221,1.988l3.083-0.343  c0.375-0.041,0.732-0.142,1.073-0.276l3.346,1.783c1.253,0.626,2.229,1.688,2.749,2.987c0.569,1.423,0.539,3.042-0.083,4.442  L37.086,61.594z M32.458,24.492C31.454,25.507,29.995,26,28,26c-0.123,0-0.253-0.019-0.384-0.041  c0.002-3.561,1.085-6.975,3.123-9.725c1.314,0.058,2.553,0.013,3.589-0.252c0,0.013,0,0.024,0,0.037  C34.358,18.923,34.395,22.535,32.458,24.492z M26.029,51.24C26.14,51.687,26.54,52,27,52h8c0.551,0,1,0.448,1,1s-0.449,1-1,1H22.66  L17,40.76v-1.15c1.238,0.206,2.56,0.343,3.967,0.389c0.552,0.019,1.078,0.028,1.579,0.028c0.249,0,0.469-0.011,0.705-0.015  L26.029,51.24z M28.673,36.688c-0.367,0.574-1.848,1.508-7.64,1.313C14.061,37.769,9,35.244,9,32c0-2.646,2.902-6.971,7.067-8.944  c1.053-0.5,1.838-1.38,2.208-2.479c0.38-1.126,0.277-2.391-0.281-3.471C17.334,15.829,17,14.447,17,13  c0-2.59,1.117-5.056,3.065-6.767c1.665-1.462,3.732-2.234,5.921-2.234c0.407,0,0.818,0.026,1.232,0.08  c4.4,0.575,7.818,4.513,7.781,8.963c-0.002,0.256-0.075,0.43-0.243,0.581c-1.03,0.93-4.453,0.607-6.098,0.453  c-1.169-0.11-1.591-0.143-1.952-0.032l0.489,1.934c0.155-0.02,0.745,0.039,1.234,0.086c-2.042,3.21-3.029,7.08-2.794,11.05  c0.104,1.764,0.983,3.522,1.833,5.224C28.33,34.058,29.219,35.838,28.673,36.688z"/><path d="M43.149,43.335c0.087,0.024,0.177,0.036,0.266,0.036c0.173,0,0.345-0.045,0.498-0.133l5.18-2.974  c1.272-0.729,1.771-2.336,1.137-3.658c-0.65-1.354-2.245-1.961-3.626-1.378L45.19,35.82l-0.229-0.394  c-0.411-0.703-1.105-1.194-1.905-1.347c-0.802-0.151-1.626,0.05-2.263,0.55l-0.096,0.075c-1.097,0.863-1.398,2.373-0.715,3.59  l2.561,4.565C42.674,43.093,42.892,43.264,43.149,43.335z M41.93,36.28l0.096-0.075c0.177-0.139,0.359-0.175,0.5-0.175  c0.062,0,0.115,0.007,0.156,0.015c0.136,0.026,0.389,0.111,0.551,0.39l0.671,1.151c0.252,0.433,0.785,0.611,1.25,0.418l2.222-0.932  c0.402-0.168,0.861,0.008,1.05,0.399c0.184,0.383,0.039,0.848-0.33,1.059l-4.304,2.471l-2.067-3.685  C41.529,36.964,41.616,36.527,41.93,36.28z"/><path d="M53.949,38.316c0.731-2.193-0.102-4.621-2.025-5.902l-0.369-0.246l-1.11,1.664l0.369,0.246  c1.175,0.783,1.684,2.266,1.237,3.605L53.949,38.316z"/><ellipse cx="31.125" cy="20.732" rx="0.696" ry="1.125"/></svg>