<svg xmlns="http://www.w3.org/2000/svg" xmlns:xlink="http://www.w3.org/1999/xlink" version="1.1" x="0px" y="0px" viewBox="0 0 64 80" style="enable-background:new 0 0 64 64;" xml:space="preserve"><g>
<path 
    d="M59,57v-2h2V18.667l-3-4V11h-2V7h-2V1h-2v6h-2v4h-2v3.667l-3,4V55h2v2h-4v6h20v-6H59z M52,9h2v2h-2V9z M47,19.333l3-4V13h6   v2.333l3,4V53H47V19.333z M61,61H45v-2h8v-2h-4v-2h8v2h-2v2h6V61z"
    fill="#2bb76a"
/>
<path d="M19,29.137L12.246,39.75C11.431,41.032,11,42.512,11,44.029C11,48.425,14.575,52,18.971,52h0.059   C23.425,52,27,48.425,27,44.029c0-1.518-0.431-2.997-1.246-4.279L19,29.137z M19.029,50h-0.059C15.679,50,13,47.321,13,44.029   c0-1.137,0.323-2.245,0.934-3.205L19,32.863l5.066,7.961c0.61,0.96,0.934,2.068,0.934,3.205C25,47.321,22.321,50,19.029,50z" />
<rect x="53" y="49" width="4" height="2"  fill="#444"/>
<rect x="53" y="45" width="4" height="2"  fill="#444"/>
    <path d="M33.883,19.387L28,15.465V13h2V1H8v12h2v2.465l-5.883,3.922C2.165,20.688,1,22.865,1,25.211V58c0,2.757,2.243,5,5,5h26   c2.757,0,5-2.243,5-5V25.211C37,22.865,35.835,20.688,33.883,19.387z M10,7h14V5H10V3h18v2h-2v2h2v4H10V7z M5.227,21.051L12,16.535   V13h14v3.535l6.773,4.516c1.05,0.7,1.781,1.755,2.078,2.949H3.149C3.446,22.806,4.176,21.751,5.227,21.051z M32,61H6   c-1.654,0-3-1.346-3-3v-2h28v-2H3V26h32v28h-2.001v2H35v2C35,59.654,33.654,61,32,61z"
    fill="#2bb76a"/>
<rect x="53" y="41" width="4" height="2" fill="#444"/>
<rect x="53" y="37" width="4" height="2"/><rect x="53" y="33" width="4" height="2"/><rect x="53" y="29" width="4" height="2"/>
    <rect x="53" y="25" width="4" height="2"/>
    <rect x="5" y="28" width="2" height="17"/>
    <rect x="5" y="47" width="2" height="2"/><path d="M17,44h-2c0,2.206,1.794,4,4,4v-2C17.897,46,17,45.103,17,44z"/></g></svg>